<svg id="anglais-30x30" xmlns="http://www.w3.org/2000/svg" xmlns:xlink="http://www.w3.org/1999/xlink" width="30" height="30" viewBox="0 0 30 30">
  <defs>
    <clipPath id="clip-path">
      <rect id="Rectangle_256" data-name="Rectangle 256" width="30" height="30" rx="15" transform="translate(-20448 -15982)" fill="#fff"/>
    </clipPath>
  </defs>
  <g id="Mask_Group_13" data-name="Mask Group 13" transform="translate(20448 15982)" clip-path="url(#clip-path)">
    <g id="icons8-usa" transform="translate(-20460.457 -15993.05)">
      <path id="Path_805" data-name="Path 805" d="M2,10H52.913V41.243H2Z" transform="translate(0 0)" fill="#eceff1"/>
      <path id="Path_806" data-name="Path 806" d="M2,10H52.915v3.471H2Zm0,6.943H52.915v3.471H2Zm0,6.943H52.915v3.471H2Zm0,6.943H52.915V34.3H2Zm0,6.943H52.915v3.472H2Z" transform="translate(0 0)" fill="#f44336"/>
      <path id="Path_807" data-name="Path 807" d="M2,10H26.3V27.357H2Z" transform="translate(0 0)" fill="#3f51b5"/>
      <g id="Group_1061" data-name="Group 1061" transform="translate(2.868 12.314)">
        <path id="Path_808" data-name="Path 808" d="M4.486,12l.536,1.143,1.2.183-.868.891.206,1.254-1.074-.592-1.074.592.206-1.254-.868-.891,1.2-.183Zm4.629,0,.536,1.143,1.2.183-.868.891.206,1.254-1.074-.592-1.074.592.206-1.254-.868-.891,1.2-.183Zm4.629,0,.536,1.143,1.2.183-.868.891.206,1.254-1.074-.592-1.074.592.206-1.254-.868-.891,1.2-.183Zm4.629,0,.536,1.143,1.2.183-.868.891.206,1.254-1.074-.592-1.074.592.206-1.254-.868-.891,1.2-.183Zm4.339,0,.536,1.143,1.2.183-.868.891.206,1.254-1.074-.592-1.074.592.206-1.254-.868-.891,1.2-.183ZM4.486,21.257,5.022,22.4l1.2.183-.868.891.206,1.254-1.074-.592-1.074.592.206-1.254-.868-.891,1.2-.183Zm4.629,0L9.65,22.4l1.2.183-.868.891.206,1.254-1.074-.592-1.074.592.206-1.254-.868-.891,1.2-.183Zm4.629,0,.536,1.143,1.2.183-.868.891.206,1.254-1.074-.592-1.074.592.206-1.254-.868-.891,1.2-.183Zm4.629,0,.536,1.143,1.2.183-.868.891.206,1.254-1.074-.592-1.074.592.206-1.254-.868-.891,1.2-.183Zm4.339,0,.536,1.143,1.2.183-.868.891.206,1.254-1.074-.592-1.074.592.206-1.254-.868-.891,1.2-.183ZM5.643,16.629l.536,1.143,1.2.183-.868.891L6.717,20.1l-1.074-.592L4.569,20.1l.206-1.254-.868-.891,1.2-.183Zm4.629,0,.536,1.143,1.2.183-.868.891.206,1.254-1.074-.592L9.2,20.1,9.4,18.846l-.868-.891,1.2-.183Zm4.629,0,.536,1.143,1.2.183-.868.891.206,1.254L14.9,19.508l-1.074.592.206-1.254-.868-.891,1.2-.183Zm4.629,0,.536,1.143,1.2.183-.868.891L20.6,20.1l-1.074-.592-1.074.592.206-1.254-.868-.891,1.2-.183Zm4.339,0,.536,1.143,1.2.183-.868.891.206,1.254-1.074-.592-1.074.592L23,18.846l-.868-.891,1.2-.183Z" transform="translate(-2.75 -12)" fill="#fff"/>
      </g>
    </g>
  </g>
  <g id="Rectangle_257" data-name="Rectangle 257" fill="none" stroke="#fff" stroke-width="1">
    <rect width="30" height="30" rx="15" stroke="none"/>
    <rect x="0.5" y="0.5" width="29" height="29" rx="14.5" fill="none"/>
  </g>
</svg>
