<svg id="facebook-20x20" xmlns="http://www.w3.org/2000/svg" width="20.102" height="20" viewBox="0 0 20.102 20">
  <path id="Path_562" data-name="Path 562" d="M-1219.259,1224.944v-.108a7.288,7.288,0,0,0-.036-.781,7.188,7.188,0,0,0-.2-1.071,10.136,10.136,0,0,0-1.027-2.538,9.733,9.733,0,0,0-1.3-1.78,10.53,10.53,0,0,0-.905-.876,10.223,10.223,0,0,0-1.907-1.286,10.058,10.058,0,0,0-2.031-.788,7.714,7.714,0,0,0-2-.288h-.173s0-.007-.01-.009h-.867s0,.006,0,.009h-.191c-.235.009-.47.013-.7.036a7.653,7.653,0,0,0-1.092.2,10.043,10.043,0,0,0-2.9,1.224,9.755,9.755,0,0,0-1.538,1.176,10.679,10.679,0,0,0-.8.827,10.093,10.093,0,0,0-1.24,1.8,10.007,10.007,0,0,0-.845,2.12,8.38,8.38,0,0,0-.316,2.235c0,.387-.007.774.01,1.161.01.2.015.407.044.61a10.212,10.212,0,0,0,.528,2.124,10.116,10.116,0,0,0,.965,1.944,10.163,10.163,0,0,0,1.783,2.093,9.8,9.8,0,0,0,1.1.862,10.056,10.056,0,0,0,2.045,1.057,9.93,9.93,0,0,0,1.832.5c.212.036.231.018.231-.193q0-3.333,0-6.666c0-.209-.007-.217-.218-.217h-2.138a1,1,0,0,1-.113,0,.093.093,0,0,1-.09-.092.862.862,0,0,1,0-.094q0-1.224,0-2.448c0-.012,0-.025,0-.038,0-.125.026-.15.148-.152h2.2c.211,0,.218-.007.219-.216,0-.706,0-1.412,0-2.118,0-.138,0-.275.015-.413a4.514,4.514,0,0,1,.3-1.305,3.151,3.151,0,0,1,.751-1.116,3.284,3.284,0,0,1,1.313-.75,4.562,4.562,0,0,1,1.4-.194c.316,0,.633.015.948.046.359.036.718.071,1.075.125.125.019.146.046.146.175q0,1.036,0,2.071c0,.135-.023.157-.161.157-.33,0-.659,0-.989,0a3.091,3.091,0,0,0-.506.041,1.417,1.417,0,0,0-.858.431,1.5,1.5,0,0,0-.387,1.043q0,.885,0,1.77c0,.253,0,.254.256.254h2.355c.13,0,.155.026.136.149-.128.834-.258,1.668-.384,2.5-.025.164-.041.176-.206.176h-1.884c-.273,0-.274,0-.274.275q0,3.276,0,6.553c0,.044,0,.088,0,.132.007.116.039.143.156.125.143-.021.284-.05.426-.08a9.993,9.993,0,0,0,3.326-1.369A10.259,10.259,0,0,0-1221.6,1232a9.928,9.928,0,0,0,1.324-1.984,9.7,9.7,0,0,0,.651-1.623,7.513,7.513,0,0,0,.365-2.3v-.129l.009,0v-1.017Z" transform="translate(1239.352 -1215.418)"/>
</svg>
