<svg id="Filtre-17x15" xmlns="http://www.w3.org/2000/svg" xmlns:xlink="http://www.w3.org/1999/xlink" width="17.006" height="15.002" viewBox="0 0 17.006 15.002">
  <defs>
    <clipPath id="clip-path">
      <rect id="Rectangle_260" data-name="Rectangle 260" width="17.005" height="15.002" transform="translate(0 0)" fill="none"/>
    </clipPath>
  </defs>
  <g id="Group_1087" data-name="Group 1087" transform="translate(0 0)" clip-path="url(#clip-path)">
    <path id="Path_811" data-name="Path 811" d="M16.5,1.917H12.8V.5a.5.5,0,0,0-.5-.5h-.889a.5.5,0,0,0-.5.5V1.917H.5a.5.5,0,0,0-.5.5V3.25a.5.5,0,0,0,.5.5H10.911V5.167a.5.5,0,0,0,.5.5H12.3a.5.5,0,0,0,.5-.5V3.75h3.7a.5.5,0,0,0,.5-.5V2.417a.5.5,0,0,0-.5-.5" fill="#191919"/>
    <path id="Path_812" data-name="Path 812" d="M16.5,11.252H5.689V9.835a.5.5,0,0,0-.5-.5H4.3a.5.5,0,0,0-.5.5v1.417H.5a.5.5,0,0,0-.5.5v.833a.5.5,0,0,0,.5.5H3.8V14.5a.5.5,0,0,0,.5.5h.889a.5.5,0,0,0,.5-.5V13.085H16.5a.5.5,0,0,0,.5-.5v-.833a.5.5,0,0,0-.5-.5" fill="#191919"/>
  </g>
</svg>
