<svg id="retours-envoie-24x19" xmlns="http://www.w3.org/2000/svg" width="24" height="19" viewBox="0 0 24 19">
  <path id="icons8-file_delivery" d="M2,3A2.012,2.012,0,0,0,0,5L-2,17A2,2,0,0,0-.973,18.732C-.981,18.822-1,18.908-1,19a3,3,0,0,0,6,0h9a3,3,0,0,0,6,0h2V14L19.275,8.553A1,1,0,0,0,18.383,8H15V6.992L12.02,3ZM2,5h9V8h2v9H4.221A2.961,2.961,0,0,0,0,16.779Zm13,9h4.764l.236.473V17h-.779A2.961,2.961,0,0,0,15,16.779ZM2,17.75A1.25,1.25,0,1,1,.75,19,1.252,1.252,0,0,1,2,17.75Zm15,0A1.25,1.25,0,1,1,15.75,19,1.252,1.252,0,0,1,17,17.75Z" transform="translate(2 -3)"/>
</svg>
