<svg id="telephone-19.44x20" xmlns="http://www.w3.org/2000/svg" width="19.441" height="20" viewBox="0 0 19.441 20">
  <path id="icons8-phone" d="M18.56,15.947a1.06,1.06,0,0,0-1.106.006l-1.729,1.06a1.058,1.058,0,0,1-1.226-.076,28.387,28.387,0,0,1-2.461-2.207A28.728,28.728,0,0,1,9.891,12.2a1.14,1.14,0,0,1-.074-1.261l1.03-1.779a1.149,1.149,0,0,0,0-1.142L8.315,3.557a1.082,1.082,0,0,0-1.207-.524,3.565,3.565,0,0,0-1.68,1.038C3.473,6.083,2.434,9.477,9.789,17.044s10.654,6.5,12.61,4.486A3.729,3.729,0,0,0,23.41,19.8a1.133,1.133,0,0,0-.507-1.236Z" transform="translate(-4 -3)"/>
</svg>
