<svg id="twitter-25x20" xmlns="http://www.w3.org/2000/svg" width="25" height="20" viewBox="0 0 25 20">
  <path id="icons8-twitter" d="M24.552,7.984a10.1,10.1,0,0,1-2.9.8,5.062,5.062,0,0,0,2.221-2.793,10.139,10.139,0,0,1-3.207,1.224,5.051,5.051,0,0,0-8.6,4.605A14.337,14.337,0,0,1,1.654,6.54a5.06,5.06,0,0,0,1.563,6.744,5.045,5.045,0,0,1-2.288-.633v.063a5.056,5.056,0,0,0,4.049,4.953,5.052,5.052,0,0,1-1.329.176,4.864,4.864,0,0,1-.951-.092,5.061,5.061,0,0,0,4.717,3.508,10.122,10.122,0,0,1-6.27,2.16,9.928,9.928,0,0,1-1.2-.071,14.266,14.266,0,0,0,7.739,2.269A14.268,14.268,0,0,0,22.047,11.253c0-.219-.006-.439-.013-.654A10.265,10.265,0,0,0,24.552,7.984Z" transform="translate(0.059 -5.617)"/>
</svg>
