<svg id="favoris-17x15" xmlns="http://www.w3.org/2000/svg" width="17" height="15" viewBox="0 0 17 15">
  <path id="icons8-heart_outline" d="M11.5,21l-.327-.2C10.838,20.6,3,15.838,3,10.739A4.666,4.666,0,0,1,7.577,6,4.55,4.55,0,0,1,11.5,8.3,4.55,4.55,0,0,1,15.423,6,4.666,4.666,0,0,1,20,10.739c0,5.1-7.838,9.864-8.173,10.063ZM7.577,7.354a3.332,3.332,0,0,0-3.269,3.385c0,3.795,5.744,7.749,7.192,8.685,1.448-.936,7.192-4.89,7.192-8.685a3.271,3.271,0,1,0-6.538,0H10.846A3.332,3.332,0,0,0,7.577,7.354Z" transform="translate(-3 -6)" fill="#191919"/>
</svg>
