<svg xmlns="http://www.w3.org/2000/svg" width="132.289" height="31.575" viewBox="0 0 132.289 31.575">
  <path id="logo-tenecy" d="M126.44,29.848l.232-.456a2.75,2.75,0,0,0,1.848.68c1.048,0,1.5-.44,1.5-.993,0-1.535-3.449-.591-3.449-2.664,0-.823.641-1.535,2.065-1.535a3.16,3.16,0,0,1,1.736.5l-.2.472a2.885,2.885,0,0,0-1.535-.464c-1.024,0-1.481.455-1.481,1.016,0,1.535,3.448.608,3.448,2.648,0,.823-.655,1.528-2.088,1.528A3.038,3.038,0,0,1,126.44,29.848Zm-79.248-2.12a2.818,2.818,0,0,1,2.96-2.848,2.761,2.761,0,0,1,2.08.807l-.368.376a2.365,2.365,0,1,0-1.7,3.984,2.422,2.422,0,0,0,1.463-.432V27.727H52.2v2.136a3.086,3.086,0,0,1-2.056.713A2.816,2.816,0,0,1,47.192,27.727ZM0,27.727A2.819,2.819,0,0,1,2.945,24.88a2.849,2.849,0,1,1,0,5.7A2.819,2.819,0,0,1,0,27.727Zm.584,0a2.277,2.277,0,0,0,2.361,2.32,2.32,2.32,0,1,0,0-4.64A2.278,2.278,0,0,0,.584,27.727Zm110.984,2.8v-5.6h.592v5.088H115.3v.512Zm-12.312,0-.672-1.5H95.465l-.672,1.5h-.617l2.561-5.6h.584l2.56,5.6Zm-3.576-1.976h2.687l-1.344-3.009ZM82,30.527l-3.6-4.544v4.544h-.592v-5.6H78.3L81.9,29.471V24.927h.584v5.6Zm-17.368,0v-5.6h.592v5.6Zm-30.12,0v-5.6H35.1v5.6Zm-12.72,0-1.28-1.8a3.939,3.939,0,0,1-.448.024h-1.5v1.776h-.592v-5.6h2.1c1.424,0,2.288.72,2.288,1.92a1.736,1.736,0,0,1-1.28,1.76l1.368,1.92Zm-3.232-2.28h1.488c1.12,0,1.712-.52,1.712-1.4,0-.9-.592-1.408-1.712-1.408H18.561Zm72.8-11.227a9.807,9.807,0,0,1-2.535-6.9A10.038,10.038,0,0,1,91.5,3.017,9.577,9.577,0,0,1,98.838,0a11.869,11.869,0,0,1,3.228.467,15.881,15.881,0,0,0,1.855.467A1.464,1.464,0,0,0,104.7.708,1.186,1.186,0,0,0,105.21,0h.609l.268,6.513h-.665a9.393,9.393,0,0,0-1.515-3.129,5.823,5.823,0,0,0-4.8-2.237A6.1,6.1,0,0,0,94.13,3.555,10.3,10.3,0,0,0,92.2,10.182a9.051,9.051,0,0,0,2.032,6.195,6.55,6.55,0,0,0,5.147,2.316,8.268,8.268,0,0,0,4.149-1.076,12.487,12.487,0,0,0,2.393-1.84l.538.538a9.724,9.724,0,0,1-2.393,2.138,10.3,10.3,0,0,1-12.7-1.43ZM59.735,19.868l-12.83-15.9v11.3q0,2.379.694,3.1A3.534,3.534,0,0,0,49.624,19v.524H42.813V19a3.475,3.475,0,0,0,2.309-.814,5.328,5.328,0,0,0,.509-2.924V2.479l-.4-.467a3.2,3.2,0,0,0-1.083-.928A4.2,4.2,0,0,0,42.813.878V.34h4.97L58.955,14.3V4.6q0-2.394-.708-3.115A3.556,3.556,0,0,0,56.18.878V.34h6.811V.878a3.373,3.373,0,0,0-2.209.807A4.979,4.979,0,0,0,60.23,4.6V19.868Zm57.395-.34V19a4.277,4.277,0,0,0,2.443-.588,3.754,3.754,0,0,0,.474-2.372V11l-3.8-5.565A33.739,33.739,0,0,0,113.49,1.75a2.793,2.793,0,0,0-1.925-.871V.34h8.114V.878a4.421,4.421,0,0,0-1.529.156.756.756,0,0,0-.51.793,1.63,1.63,0,0,0,.086.461,3.156,3.156,0,0,0,.382.729L122.4,9.46l4.163-6.542a2.93,2.93,0,0,0,.333-.68,1.6,1.6,0,0,0,.078-.4.81.81,0,0,0-.666-.822,5.292,5.292,0,0,0-1.359-.141V.34h6.343V.878a2.951,2.951,0,0,0-1.571.524,10.469,10.469,0,0,0-2.422,2.79l-4.29,6.542v5.649q0,1.685.545,2.1a5.028,5.028,0,0,0,2.443.517v.524Zm-49.893,0V19a4.231,4.231,0,0,0,2.074-.573q.475-.4.475-2.047V3.484a3.019,3.019,0,0,0-.468-2.018A3.45,3.45,0,0,0,67.236.878V.34H82.643l.1,4.163h-.736A4.134,4.134,0,0,0,80.9,2.012a6.119,6.119,0,0,0-3.285-.567H73.679q-.637,0-.786.205a1.412,1.412,0,0,0-.148.772V8.893H77.2a3.4,3.4,0,0,0,2.364-.552A4.789,4.789,0,0,0,80.391,6.1h.68v6.711h-.68a4.82,4.82,0,0,0-.835-2.23A3.417,3.417,0,0,0,77.2,10.04h-4.46v7.178q0,.864.545,1.02a18.309,18.309,0,0,0,3.263.156A10.983,10.983,0,0,0,80.9,17.75a5.9,5.9,0,0,0,2.521-3.122h.807l-1.318,4.9Zm-45.617,0V19a4.239,4.239,0,0,0,2.075-.573q.474-.4.474-2.047V3.484A3.02,3.02,0,0,0,23.7,1.466,3.456,3.456,0,0,0,21.619.878V.34H37.025l.1,4.163h-.736a4.139,4.139,0,0,0-1.1-2.492A6.125,6.125,0,0,0,32,1.445H28.061q-.637,0-.786.205a1.412,1.412,0,0,0-.149.772V8.893h4.46a3.408,3.408,0,0,0,2.365-.552A4.8,4.8,0,0,0,34.773,6.1h.68v6.711h-.68a4.82,4.82,0,0,0-.835-2.23,3.415,3.415,0,0,0-2.351-.544h-4.46v7.178q0,.864.545,1.02a18.317,18.317,0,0,0,3.263.156,10.991,10.991,0,0,0,4.348-.644,5.9,5.9,0,0,0,2.52-3.122h.807l-1.317,4.9Zm-16.961,0V19a4,4,0,0,0,2.294-.609,3.826,3.826,0,0,0,.453-2.35V1.544H5.791a5.533,5.533,0,0,0-3.278.694A5.129,5.129,0,0,0,1.2,5.268H.5L.665.34H17.049L17.2,5.268H16.51a5.922,5.922,0,0,0-1.3-3.023q-.786-.7-3.307-.7H10.294v14.84q0,1.685.524,2.089A4.812,4.812,0,0,0,13.112,19v.524Z" transform="translate(0.5 0.499)" stroke="rgba(0,0,0,0)" stroke-miterlimit="10" stroke-width="1"/>
</svg>
