<svg id="panier-16x16" xmlns="http://www.w3.org/2000/svg" width="16" height="16" viewBox="0 0 16 16">
  <g id="surface1">
    <path id="Path_540" data-name="Path 540" d="M1,.992v1.23H3.441a.609.609,0,0,1,.572.423L5.153,12.894a1.848,1.848,0,0,0,1.821,1.638h7.452V13.3H6.974a.6.6,0,0,1-.605-.543l-.076-.687h7.743a1.845,1.845,0,0,0,1.8-1.48L17,4.692H5.467L5.205,2.347l-.019-.058A1.835,1.835,0,0,0,3.441.992Zm12.205,13.54a1.23,1.23,0,1,0,1.221,1.23A1.228,1.228,0,0,0,13.205,14.532Zm-6.1,0a1.23,1.23,0,1,0,1.22,1.23A1.228,1.228,0,0,0,7.1,14.532Zm-1.5-8.61h9.907l-.877,4.425a.609.609,0,0,1-.6.495H6.154Z" transform="translate(-1 -0.992)" fill="#191919"/>
  </g>
</svg>
